<svg width="1295" height="1144" viewBox="0 0 1295 1144" fill="none" xmlns="http://www.w3.org/2000/svg" class="waves" data-v-80e842dc=""><path opacity="0.5" d="M225.254 421.057C218.562 255.912 303.473 165.72 429.841 126.433C556.209 87.1454 625.724 -81.1141 840.412 104.765C1055.1 290.644 1253.33 240.68 1284.67 549.024C1318.6 882.783 1035.27 721.122 928.278 905.418C811.191 1107.1 748.183 1273.73 390.378 998.752C32.5734 723.775 233.62 627.489 225.254 421.057Z" fill="#D8E2FF" data-v-80e842dc=""></path> <path opacity="0.5" d="M866.067 62.8805C1066.39 259.724 1449.25 516.311 1228.5 733.223C1007.76 950.135 536.889 1279.01 336.567 1082.17C136.244 885.326 -139.135 608.669 81.6104 391.757C302.356 174.845 665.744 -133.963 866.067 62.8805Z" fill="#D8E2FF" data-v-80e842dc=""></path></svg>