<svg xmlns="http://www.w3.org/2000/svg" width="793" height="592" viewBox="0 0 793 592" fill="none">
<g filter="url(#filter0_dd)">
<path d="M40 238H753V540C753 545.523 748.523 550 743 550H50C44.4772 550 40 545.523 40 540V238Z" fill="white"/>
<path d="M40 48C40 42.4772 44.4772 38 50 38H743C748.523 38 753 42.4772 753 48V238H40V48Z" fill="#8DA3E4"/>
<g filter="url(#filter1_dd)">
<rect x="80" y="158" width="633" height="348" rx="10" fill="white"/>
</g>
<path opacity="0.4" d="M701 60.0156C695.469 60.0156 691.016 64.4688 691.016 70C691.016 75.5312 695.469 79.9844 701 79.9844C706.531 79.9844 710.984 75.5312 710.984 70C710.984 64.4688 706.531 60.0156 701 60.0156ZM696.078 76.2812C696.5 75.3906 699.125 74.5 701 74.5C702.875 74.5 705.5 75.3906 705.922 76.2812C704.562 77.3594 702.875 78.0156 701 78.0156C699.125 78.0156 697.438 77.3594 696.078 76.2812ZM707.375 74.8281C705.922 73.0938 702.453 72.4844 701 72.4844C699.547 72.4844 696.078 73.0938 694.625 74.8281C693.641 73.4688 692.984 71.8281 692.984 70C692.984 65.5938 696.594 61.9844 701 61.9844C705.406 61.9844 709.016 65.5938 709.016 70C709.016 71.8281 708.359 73.4688 707.375 74.8281ZM701 64C699.078 64 697.484 65.5469 697.484 67.5156C697.484 69.4375 699.078 70.9844 701 70.9844C702.922 70.9844 704.516 69.4375 704.516 67.5156C704.516 65.5469 702.922 64 701 64ZM701 69.0156C700.156 69.0156 699.5 68.3125 699.5 67.5156C699.5 66.6719 700.156 66.0156 701 66.0156C701.844 66.0156 702.5 66.6719 702.5 67.5156C702.5 68.3125 701.844 69.0156 701 69.0156Z" fill="white"/>
<rect opacity="0.2" x="80" y="132" width="61" height="16" rx="4" fill="white"/>
<rect opacity="0.2" x="151" y="132" width="51" height="16" rx="4" fill="white"/>
<rect opacity="0.2" x="293" y="132" width="51" height="16" rx="4" fill="white"/>
<rect opacity="0.2" x="354" y="132" width="61" height="16" rx="4" fill="white"/>
<rect opacity="0.2" x="598" y="58" width="81" height="24" rx="4" fill="white"/>
<rect opacity="0.2" x="212" y="132" width="71" height="16" rx="4" fill="white"/>
<rect x="156" y="272" width="194" height="16" rx="4" fill="#E4EAF1"/>
<rect x="657" y="272" width="16" height="16" rx="4" fill="#E4EAF1"/>
<rect x="621" y="272" width="16" height="16" rx="4" fill="#E4EAF1"/>
<rect x="585" y="272" width="16" height="16" rx="4" fill="#E4EAF1"/>
<rect x="549" y="272" width="16" height="16" rx="4" fill="#8DA3E4"/>
<rect x="513" y="272" width="16" height="16" rx="4" fill="#E4EAF1"/>
<rect x="120" y="272" width="16" height="16" rx="4" fill="#8DA3E4"/>
<rect x="477" y="272" width="16" height="16" rx="4" fill="#27AE60"/>
<rect x="156" y="328" width="168" height="16" rx="4" fill="#E4EAF1"/>
<rect x="657" y="328" width="16" height="16" rx="4" fill="#E4EAF1"/>
<rect x="621" y="328" width="16" height="16" rx="4" fill="#E4EAF1"/>
<rect x="585" y="328" width="16" height="16" rx="4" fill="#E4EAF1"/>
<rect x="549" y="328" width="16" height="16" rx="4" fill="#E4EAF1"/>
<rect x="513" y="328" width="16" height="16" rx="4" fill="#E4EAF1"/>
<rect x="120" y="328" width="16" height="16" rx="4" fill="#8DA3E4"/>
<rect x="477" y="328" width="16" height="16" rx="4" fill="#E4EAF1"/>
<rect x="156" y="440" width="161" height="16" rx="4" fill="#E4EAF1"/>
<rect x="657" y="440" width="16" height="16" rx="4" fill="#E4EAF1"/>
<rect x="621" y="440" width="16" height="16" rx="4" fill="#E4EAF1"/>
<rect x="585" y="440" width="16" height="16" rx="4" fill="#E4EAF1"/>
<rect x="549" y="440" width="16" height="16" rx="4" fill="#E4EAF1"/>
<rect x="513" y="440" width="16" height="16" rx="4" fill="#E4EAF1"/>
<rect x="120" y="440" width="16" height="16" rx="4" fill="#8DA3E4"/>
<rect x="477" y="440" width="16" height="16" rx="4" fill="#E4EAF1"/>
<rect x="156" y="384" width="180" height="16" rx="4" fill="#E4EAF1"/>
<rect x="657" y="384" width="16" height="16" rx="4" fill="#E4EAF1"/>
<rect x="621" y="384" width="16" height="16" rx="4" fill="#27AE60"/>
<rect x="585" y="384" width="16" height="16" rx="4" fill="#8DA3E4"/>
<rect x="549" y="384" width="16" height="16" rx="4" fill="#E4EAF1"/>
<rect x="513" y="384" width="16" height="16" rx="4" fill="#E4EAF1"/>
<rect x="120" y="384" width="16" height="16" rx="4" fill="#8DA3E4"/>
<rect x="477" y="384" width="16" height="16" rx="4" fill="#E4EAF1"/>
<rect x="120" y="198" width="264" height="24" rx="4" fill="#A2B5CD"/>
<rect x="585" y="198" width="88" height="24" rx="4" fill="#8DA3E4"/>









<path opacity="0.4" d="M573.188 65.1719C573.969 64.3906 574.906 64 576 64C577.094 64 578.031 64.3906 578.812 65.1719C579.594 65.9531 579.984 66.8906 579.984 67.9844C579.984 68.8281 579.484 69.7031 578.484 70.6094C577.484 71.4844 576.984 72.2812 576.984 73H575.016C575.016 72.2812 575.172 71.6719 575.484 71.1719C575.797 70.6406 576.141 70.2656 576.516 70.0469C576.891 69.7969 577.234 69.5 577.547 69.1562C577.859 68.8125 578.016 68.4219 578.016 67.9844C578.016 67.4531 577.812 67 577.406 66.625C577 66.2188 576.531 66.0156 576 66.0156C575.469 66.0156 575 66.2188 574.594 66.625C574.188 67 573.984 67.4531 573.984 67.9844H572.016C572.016 66.8906 572.406 65.9531 573.188 65.1719ZM570.328 75.6719C571.922 77.2344 573.812 78.0156 576 78.0156C578.188 78.0156 580.062 77.2344 581.625 75.6719C583.219 74.0781 584.016 72.1875 584.016 70C584.016 67.8125 583.219 65.9375 581.625 64.375C580.062 62.7812 578.188 61.9844 576 61.9844C573.812 61.9844 571.922 62.7812 570.328 64.375C568.766 65.9375 567.984 67.8125 567.984 70C567.984 72.1875 568.766 74.0781 570.328 75.6719ZM568.922 62.9688C570.891 61 573.25 60.0156 576 60.0156C578.75 60.0156 581.094 61 583.031 62.9688C585 64.9062 585.984 67.25 585.984 70C585.984 72.75 585 75.1094 583.031 77.0781C581.094 79.0156 578.75 79.9844 576 79.9844C573.25 79.9844 570.891 79.0156 568.922 77.0781C566.984 75.1094 566.016 72.75 566.016 70C566.016 67.25 566.984 64.9062 568.922 62.9688ZM575.016 76V73.9844H576.984V76H575.016Z" fill="white"/>
<path opacity="0.4" d="M545.984 75.0156V69.0156C545.984 67.7344 545.625 66.6719 544.906 65.8281C544.188 64.9531 543.219 64.5156 542 64.5156C540.781 64.5156 539.812 64.9531 539.094 65.8281C538.375 66.6719 538.016 67.7344 538.016 69.0156V75.0156H545.984ZM548 73.9844L550.016 76V76.9844H533.984V76L536 73.9844V69.0156C536 67.4531 536.391 66.0938 537.172 64.9375C537.984 63.7812 539.094 63.0312 540.5 62.6875V61.9844C540.5 61.5781 540.641 61.2344 540.922 60.9531C541.203 60.6406 541.562 60.4844 542 60.4844C542.438 60.4844 542.797 60.6406 543.078 60.9531C543.359 61.2344 543.5 61.5781 543.5 61.9844V62.6875C544.906 63.0312 546 63.7812 546.781 64.9375C547.594 66.0938 548 67.4531 548 69.0156V73.9844ZM543.406 79.4219C543 79.7969 542.531 79.9844 542 79.9844C541.469 79.9844 541 79.7969 540.594 79.4219C540.188 79.0156 539.984 78.5469 539.984 78.0156H544.016C544.016 78.5469 543.812 79.0156 543.406 79.4219Z" fill="white"/>
<path opacity="0.4" d="M505 74.1719L515.594 63.5781L517 64.9844L505 76.9844L499.422 71.4062L500.828 70L505 74.1719Z" fill="white"/>
</g>
<defs>
<filter id="filter0_dd" x="0" y="0" width="793" height="592" filterUnits="userSpaceOnUse" color-interpolation-filters="sRGB">
<feFlood flood-opacity="0" result="BackgroundImageFix"/>
<feColorMatrix in="SourceAlpha" type="matrix" values="0 0 0 0 0 0 0 0 0 0 0 0 0 0 0 0 0 0 127 0"/>
<feOffset dy="2"/>
<feGaussianBlur stdDeviation="20"/>
<feColorMatrix type="matrix" values="0 0 0 0 0.0901961 0 0 0 0 0.160784 0 0 0 0 0.25098 0 0 0 0.05 0"/>
<feBlend mode="normal" in2="BackgroundImageFix" result="effect1_dropShadow"/>
<feColorMatrix in="SourceAlpha" type="matrix" values="0 0 0 0 0 0 0 0 0 0 0 0 0 0 0 0 0 0 127 0"/>
<feOffset dy="5"/>
<feGaussianBlur stdDeviation="5"/>
<feColorMatrix type="matrix" values="0 0 0 0 0.0901961 0 0 0 0 0.160784 0 0 0 0 0.25098 0 0 0 0.1 0"/>
<feBlend mode="normal" in2="effect1_dropShadow" result="effect2_dropShadow"/>
<feBlend mode="normal" in="SourceGraphic" in2="effect2_dropShadow" result="shape"/>
</filter>
<filter id="filter1_dd" x="40" y="120" width="713" height="428" filterUnits="userSpaceOnUse" color-interpolation-filters="sRGB">
<feFlood flood-opacity="0" result="BackgroundImageFix"/>
<feColorMatrix in="SourceAlpha" type="matrix" values="0 0 0 0 0 0 0 0 0 0 0 0 0 0 0 0 0 0 127 0"/>
<feOffset dy="2"/>
<feGaussianBlur stdDeviation="20"/>
<feColorMatrix type="matrix" values="0 0 0 0 0.0901961 0 0 0 0 0.160784 0 0 0 0 0.25098 0 0 0 0.05 0"/>
<feBlend mode="normal" in2="BackgroundImageFix" result="effect1_dropShadow"/>
<feColorMatrix in="SourceAlpha" type="matrix" values="0 0 0 0 0 0 0 0 0 0 0 0 0 0 0 0 0 0 127 0"/>
<feOffset dy="5"/>
<feGaussianBlur stdDeviation="5"/>
<feColorMatrix type="matrix" values="0 0 0 0 0.0901961 0 0 0 0 0.160784 0 0 0 0 0.25098 0 0 0 0.1 0"/>
<feBlend mode="normal" in2="effect1_dropShadow" result="effect2_dropShadow"/>
<feBlend mode="normal" in="SourceGraphic" in2="effect2_dropShadow" result="shape"/>
</filter>
</defs>
</svg>